<?xml version="1.0" standalone="yes"?>

<svg version="1.1" viewBox="0.0 0.0 644.5564304461942 359.70866141732284" fill="none" stroke="none" stroke-linecap="square" stroke-miterlimit="10" xmlns="http://www.w3.org/2000/svg" xmlns:xlink="http://www.w3.org/1999/xlink"><clipPath id="p.0"><path d="m0 0l644.55646 0l0 359.70865l-644.55646 0l0 -359.70865z" clip-rule="nonzero"></path></clipPath><g clip-path="url(#p.0)"><path fill="#000000" fill-opacity="0.0" d="m0 0l644.55646 0l0 359.70865l-644.55646 0z" fill-rule="nonzero"></path><path fill="#000000" fill-opacity="0.0" d="m155.28871 143.44044l91.68504 0l0 74.866135l-91.68504 0z" fill-rule="nonzero"></path><path fill="#000000" d="m178.29262 170.36044l0 -13.59375l1.8125 0l0 5.578125l7.0625 0l0 -5.578125l1.796875 0l0 13.59375l-1.796875 0l0 -6.40625l-7.0625 0l0 6.40625l-1.8125 0zm16.879196 0l0 -12.0l-4.46875 0l0 -1.59375l10.765625 0l0 1.59375l-4.5 0l0 12.0l-1.796875 0zm11.395981 0l0 -12.0l-4.46875 0l0 -1.59375l10.765625 0l0 1.59375l-4.5 0l0 12.0l-1.796875 0zm7.942856 0l0 -13.59375l5.125 0q1.359375 0 2.078125 0.125q1.0 0.171875 1.671875 0.640625q0.671875 0.46875 1.078125 1.3125q0.421875 0.84375 0.421875 1.84375q0 1.734375 -1.109375 2.9375q-1.09375 1.203125 -3.984375 1.203125l-3.484375 0l0 5.53125l-1.796875 0zm1.796875 -7.140625l3.515625 0q1.75 0 2.46875 -0.640625q0.734375 -0.65625 0.734375 -1.828125q0 -0.859375 -0.4375 -1.46875q-0.421875 -0.609375 -1.125 -0.796875q-0.453125 -0.125 -1.671875 -0.125l-3.484375 0l0 4.859375z" fill-rule="nonzero"></path><path fill="#000000" d="m171.25212 204.36044l0 -9.859375l1.5 0l0 1.5q0.578125 -1.046875 1.0625 -1.375q0.484375 -0.34375 1.078125 -0.34375q0.84375 0 1.71875 0.546875l-0.578125 1.546875q-0.609375 -0.359375 -1.234375 -0.359375q-0.546875 0 -0.984375 0.328125q-0.421875 0.328125 -0.609375 0.90625q-0.28125 0.890625 -0.28125 1.953125l0 5.15625l-1.671875 0zm12.978302 -3.171875l1.71875 0.21875q-0.40625 1.5 -1.515625 2.34375q-1.09375 0.828125 -2.8125 0.828125q-2.15625 0 -3.421875 -1.328125q-1.265625 -1.328125 -1.265625 -3.734375q0 -2.484375 1.265625 -3.859375q1.28125 -1.375 3.328125 -1.375q1.984375 0 3.234375 1.34375q1.25 1.34375 1.25 3.796875q0 0.140625 -0.015625 0.4375l-7.34375 0q0.09375 1.625 0.921875 2.484375q0.828125 0.859375 2.0625 0.859375q0.90625 0 1.546875 -0.46875q0.65625 -0.484375 1.046875 -1.546875zm-5.484375 -2.703125l5.5 0q-0.109375 -1.234375 -0.625 -1.859375q-0.796875 -0.96875 -2.078125 -0.96875q-1.140625 0 -1.9375 0.78125q-0.78125 0.765625 -0.859375 2.046875zm15.391342 9.65625l0 -4.828125q-0.390625 0.546875 -1.09375 0.90625q-0.6875 0.359375 -1.484375 0.359375q-1.75 0 -3.015625 -1.390625q-1.265625 -1.40625 -1.265625 -3.84375q0 -1.484375 0.515625 -2.65625q0.515625 -1.1875 1.484375 -1.796875q0.984375 -0.609375 2.15625 -0.609375q1.828125 0 2.875 1.546875l0 -1.328125l1.5 0l0 13.640625l-1.671875 0zm-5.140625 -8.734375q0 1.90625 0.796875 2.859375q0.796875 0.9375 1.90625 0.9375q1.0625 0 1.828125 -0.890625q0.78125 -0.90625 0.78125 -2.765625q0 -1.953125 -0.8125 -2.953125q-0.8125 -1.0 -1.90625 -1.0q-1.09375 0 -1.84375 0.9375q-0.75 0.921875 -0.75 2.875zm15.688217 4.953125l0 -1.453125q-1.140625 1.671875 -3.125 1.671875q-0.859375 0 -1.625 -0.328125q-0.75 -0.34375 -1.125 -0.84375q-0.359375 -0.5 -0.515625 -1.234375q-0.09375 -0.5 -0.09375 -1.5625l0 -6.109375l1.671875 0l0 5.46875q0 1.3125 0.09375 1.765625q0.15625 0.65625 0.671875 1.03125q0.515625 0.375 1.265625 0.375q0.75 0 1.40625 -0.375q0.65625 -0.390625 0.921875 -1.046875q0.28125 -0.671875 0.28125 -1.9375l0 -5.28125l1.671875 0l0 9.859375l-1.5 0zm10.672592 -3.171875l1.71875 0.21875q-0.40625 1.5 -1.515625 2.34375q-1.09375 0.828125 -2.8125 0.828125q-2.15625 0 -3.421875 -1.328125q-1.265625 -1.328125 -1.265625 -3.734375q0 -2.484375 1.265625 -3.859375q1.28125 -1.375 3.328125 -1.375q1.984375 0 3.234375 1.34375q1.25 1.34375 1.25 3.796875q0 0.140625 -0.015625 0.4375l-7.34375 0q0.09375 1.625 0.921875 2.484375q0.828125 0.859375 2.0625 0.859375q0.90625 0 1.546875 -0.46875q0.65625 -0.484375 1.046875 -1.546875zm-5.484375 -2.703125l5.5 0q-0.109375 -1.234375 -0.625 -1.859375q-0.796875 -0.96875 -2.078125 -0.96875q-1.140625 0 -1.9375 0.78125q-0.78125 0.765625 -0.859375 2.046875zm8.438217 2.9375l1.65625 -0.265625q0.140625 1.0 0.765625 1.53125q0.640625 0.515625 1.78125 0.515625q1.15625 0 1.703125 -0.46875q0.5625 -0.46875 0.5625 -1.09375q0 -0.5625 -0.484375 -0.890625q-0.34375 -0.21875 -1.703125 -0.5625q-1.84375 -0.46875 -2.5625 -0.796875q-0.703125 -0.34375 -1.078125 -0.9375q-0.359375 -0.609375 -0.359375 -1.328125q0 -0.65625 0.296875 -1.21875q0.3125 -0.5625 0.828125 -0.9375q0.390625 -0.28125 1.0625 -0.484375q0.671875 -0.203125 1.4375 -0.203125q1.171875 0 2.046875 0.34375q0.875 0.328125 1.28125 0.90625q0.421875 0.5625 0.578125 1.515625l-1.625 0.21875q-0.109375 -0.75 -0.65625 -1.171875q-0.53125 -0.4375 -1.5 -0.4375q-1.15625 0 -1.640625 0.390625q-0.484375 0.375 -0.484375 0.875q0 0.328125 0.203125 0.59375q0.203125 0.265625 0.640625 0.4375q0.25 0.09375 1.46875 0.4375q1.765625 0.46875 2.46875 0.765625q0.703125 0.296875 1.09375 0.875q0.40625 0.578125 0.40625 1.4375q0 0.828125 -0.484375 1.578125q-0.484375 0.734375 -1.40625 1.140625q-0.921875 0.390625 -2.078125 0.390625q-1.921875 0 -2.9375 -0.796875q-1.0 -0.796875 -1.28125 -2.359375zm13.65625 1.4375l0.234375 1.484375q-0.703125 0.140625 -1.265625 0.140625q-0.90625 0 -1.40625 -0.28125q-0.5 -0.296875 -0.703125 -0.75q-0.203125 -0.46875 -0.203125 -1.984375l0 -5.65625l-1.234375 0l0 -1.3125l1.234375 0l0 -2.4375l1.65625 -1.0l0 3.4375l1.6875 0l0 1.3125l-1.6875 0l0 5.75q0 0.71875 0.078125 0.921875q0.09375 0.203125 0.296875 0.328125q0.203125 0.125 0.578125 0.125q0.265625 0 0.734375 -0.078125z" fill-rule="nonzero"></path><path fill="#cfe2f3" d="m279.59842 182.2769l0 0c0 -10.87175 8.813293 -19.685043 19.685059 -19.685043l0 0c5.2207947 0 10.227753 2.0739594 13.919403 5.765625c3.691681 3.6916504 5.765625 8.698624 5.765625 13.919418l0 0c0 10.87175 -8.813293 19.685043 -19.685028 19.685043l0 0c-10.871765 0 -19.685059 -8.813293 -19.685059 -19.685043z" fill-rule="nonzero"></path><path stroke="#000000" stroke-width="2.0" stroke-linejoin="round" stroke-linecap="butt" d="m279.59842 182.2769l0 0c0 -10.87175 8.813293 -19.685043 19.685059 -19.685043l0 0c5.2207947 0 10.227753 2.0739594 13.919403 5.765625c3.691681 3.6916504 5.765625 8.698624 5.765625 13.919418l0 0c0 10.87175 -8.813293 19.685043 -19.685028 19.685043l0 0c-10.871765 0 -19.685059 -8.813293 -19.685059 -19.685043z" fill-rule="nonzero"></path><path fill="#cfe2f3" d="m419.18503 42.24803l0 0c0 -10.871748 8.813293 -19.68504 19.685059 -19.68504l0 0c5.2207947 0 10.227753 2.0739536 13.919403 5.7656155c3.691681 3.69166 5.765625 8.698626 5.765625 13.919424l0 0c0 10.871746 -8.813293 19.68504 -19.685028 19.68504l0 0c-10.871765 0 -19.685059 -8.813293 -19.685059 -19.68504z" fill-rule="nonzero"></path><path stroke="#000000" stroke-width="2.0" stroke-linejoin="round" stroke-linecap="butt" d="m419.18503 42.24803l0 0c0 -10.871748 8.813293 -19.68504 19.685059 -19.68504l0 0c5.2207947 0 10.227753 2.0739536 13.919403 5.7656155c3.691681 3.69166 5.765625 8.698626 5.765625 13.919424l0 0c0 10.871746 -8.813293 19.68504 -19.685028 19.68504l0 0c-10.871765 0 -19.685059 -8.813293 -19.685059 -19.68504z" fill-rule="nonzero"></path><path fill="#cfe2f3" d="m558.647 182.27559l0 0c0 -10.87175 8.813293 -19.685043 19.685059 -19.685043l0 0c5.220764 0 10.227783 2.0739594 13.919434 5.765625c3.6916504 3.6916504 5.765625 8.698624 5.765625 13.919418l0 0c0 10.87175 -8.813293 19.685043 -19.685059 19.685043l0 0c-10.871765 0 -19.685059 -8.813293 -19.685059 -19.685043z" fill-rule="nonzero"></path><path stroke="#000000" stroke-width="2.0" stroke-linejoin="round" stroke-linecap="butt" d="m558.647 182.27559l0 0c0 -10.87175 8.813293 -19.685043 19.685059 -19.685043l0 0c5.220764 0 10.227783 2.0739594 13.919434 5.765625c3.6916504 3.6916504 5.765625 8.698624 5.765625 13.919418l0 0c0 10.87175 -8.813293 19.685043 -19.685059 19.685043l0 0c-10.871765 0 -19.685059 -8.813293 -19.685059 -19.685043z" fill-rule="nonzero"></path><path fill="#cfe2f3" d="m419.18503 323.6824l0 0c0 -10.871735 8.813293 -19.685028 19.685059 -19.685028l0 0c5.2207947 0 10.227753 2.073944 13.919403 5.765625c3.691681 3.6916504 5.765625 8.698608 5.765625 13.919403l0 0c0 10.871765 -8.813293 19.685059 -19.685028 19.685059l0 0c-10.871765 0 -19.685059 -8.813293 -19.685059 -19.685059z" fill-rule="nonzero"></path><path stroke="#000000" stroke-width="2.0" stroke-linejoin="round" stroke-linecap="butt" d="m419.18503 323.6824l0 0c0 -10.871735 8.813293 -19.685028 19.685059 -19.685028l0 0c5.2207947 0 10.227753 2.073944 13.919403 5.765625c3.691681 3.6916504 5.765625 8.698608 5.765625 13.919403l0 0c0 10.871765 -8.813293 19.685059 -19.685028 19.685059l0 0c-10.871765 0 -19.685059 -8.813293 -19.685059 -19.685059z" fill-rule="nonzero"></path><path fill="#cfe2f3" d="m318.9672 79.63517l0 0c0 -10.87175 8.813293 -19.68504 19.685028 -19.68504l0 0c5.2207947 0 10.227783 2.0739555 13.919434 5.7656136c3.6916504 3.6916656 5.765625 8.698631 5.765625 13.919426l0 0c0 10.87175 -8.813293 19.685043 -19.685059 19.685043l0 0c-10.871735 0 -19.685028 -8.813293 -19.685028 -19.685043z" fill-rule="nonzero"></path><path stroke="#000000" stroke-width="2.0" stroke-linejoin="round" stroke-linecap="butt" d="m318.9672 79.63517l0 0c0 -10.87175 8.813293 -19.68504 19.685028 -19.68504l0 0c5.2207947 0 10.227783 2.0739555 13.919434 5.7656136c3.6916504 3.6916656 5.765625 8.698631 5.765625 13.919426l0 0c0 10.87175 -8.813293 19.685043 -19.685059 19.685043l0 0c-10.871735 0 -19.685028 -8.813293 -19.685028 -19.685043z" fill-rule="nonzero"></path><path fill="#cfe2f3" d="m519.2769 81.61942l0 0c0 -10.87175 8.813293 -19.68504 19.684998 -19.68504l0 0c5.220825 0 10.227783 2.0739555 13.919434 5.7656136c3.6916504 3.691658 5.765625 8.698631 5.765625 13.919426l0 0c0 10.87175 -8.813293 19.685036 -19.685059 19.685036l0 0c-10.871704 0 -19.684998 -8.813286 -19.684998 -19.685036z" fill-rule="nonzero"></path><path stroke="#000000" stroke-width="2.0" stroke-linejoin="round" stroke-linecap="butt" d="m519.2769 81.61942l0 0c0 -10.87175 8.813293 -19.68504 19.684998 -19.68504l0 0c5.220825 0 10.227783 2.0739555 13.919434 5.7656136c3.6916504 3.691658 5.765625 8.698631 5.765625 13.919426l0 0c0 10.87175 -8.813293 19.685036 -19.685059 19.685036l0 0c-10.871704 0 -19.684998 -8.813286 -19.684998 -19.685036z" fill-rule="nonzero"></path><path fill="#cfe2f3" d="m519.2769 284.31235l0 0c0 -10.871765 8.813293 -19.685059 19.684998 -19.685059l0 0c5.220825 0 10.227783 2.0739746 13.919434 5.765625c3.6916504 3.6916504 5.765625 8.698639 5.765625 13.919434l0 0c0 10.871735 -8.813293 19.685028 -19.685059 19.685028l0 0c-10.871704 0 -19.684998 -8.813293 -19.684998 -19.685028z" fill-rule="nonzero"></path><path stroke="#000000" stroke-width="2.0" stroke-linejoin="round" stroke-linecap="butt" d="m519.2769 284.31235l0 0c0 -10.871765 8.813293 -19.685059 19.684998 -19.685059l0 0c5.220825 0 10.227783 2.0739746 13.919434 5.765625c3.6916504 3.6916504 5.765625 8.698639 5.765625 13.919434l0 0c0 10.871735 -8.813293 19.685028 -19.685059 19.685028l0 0c-10.871704 0 -19.684998 -8.813293 -19.684998 -19.685028z" fill-rule="nonzero"></path><path fill="#cfe2f3" d="m316.54462 284.92126l0 0c0 -10.871765 8.813293 -19.685059 19.685028 -19.685059l0 0c5.220825 0 10.227783 2.0739746 13.919434 5.765625c3.691681 3.6916504 5.765625 8.698639 5.765625 13.919434l0 0c0 10.871735 -8.813293 19.685028 -19.685059 19.685028l0 0c-10.871735 0 -19.685028 -8.813293 -19.685028 -19.685028z" fill-rule="nonzero"></path><path stroke="#000000" stroke-width="2.0" stroke-linejoin="round" stroke-linecap="butt" d="m316.54462 284.92126l0 0c0 -10.871765 8.813293 -19.685059 19.685028 -19.685059l0 0c5.220825 0 10.227783 2.0739746 13.919434 5.765625c3.691681 3.6916504 5.765625 8.698639 5.765625 13.919434l0 0c0 10.871735 -8.813293 19.685028 -19.685059 19.685028l0 0c-10.871735 0 -19.685028 -8.813293 -19.685028 -19.685028z" fill-rule="nonzero"></path><path fill="#cfe2f3" d="m17.188976 163.34927l0 0c0 -5.1489716 4.174059 -9.323029 9.323021 -9.323029l99.14923 0c2.472618 0 4.8439713 0.98223877 6.592369 2.7306519c1.7484131 1.7483978 2.7306519 4.119751 2.7306519 6.5923767l0 37.290955c0 5.1489716 -4.174057 9.323029 -9.323021 9.323029l-99.14923 0c-5.148962 0 -9.323021 -4.174057 -9.323021 -9.323029z" fill-rule="nonzero"></path><path stroke="#000000" stroke-width="2.0" stroke-linejoin="round" stroke-linecap="butt" d="m17.188976 163.34927l0 0c0 -5.1489716 4.174059 -9.323029 9.323021 -9.323029l99.14923 0c2.472618 0 4.8439713 0.98223877 6.592369 2.7306519c1.7484131 1.7483978 2.7306519 4.119751 2.7306519 6.5923767l0 37.290955c0 5.1489716 -4.174057 9.323029 -9.323021 9.323029l-99.14923 0c-5.148962 0 -9.323021 -4.174057 -9.323021 -9.323029z" fill-rule="nonzero"></path><path fill="#000000" d="m37.664246 177.91475l0 -13.59375l6.03125 0q1.8125 0 2.75 0.359375q0.953125 0.359375 1.515625 1.296875q0.5625 0.921875 0.5625 2.046875q0 1.453125 -0.9375 2.453125q-0.921875 0.984375 -2.890625 1.25q0.71875 0.34375 1.09375 0.671875q0.78125 0.734375 1.484375 1.8125l2.375 3.703125l-2.265625 0l-1.796875 -2.828125q-0.796875 -1.21875 -1.3125 -1.875q-0.5 -0.65625 -0.90625 -0.90625q-0.40625 -0.265625 -0.8125 -0.359375q-0.3125 -0.078125 -1.015625 -0.078125l-2.078125 0l0 6.046875l-1.796875 0zm1.796875 -7.59375l3.859375 0q1.234375 0 1.921875 -0.25q0.703125 -0.265625 1.0625 -0.828125q0.375 -0.5625 0.375 -1.21875q0 -0.96875 -0.703125 -1.578125q-0.703125 -0.625 -2.21875 -0.625l-4.296875 0l0 4.5zm18.176071 4.421875l1.71875 0.21875q-0.40625 1.5 -1.515625 2.34375q-1.09375 0.828125 -2.8125 0.828125q-2.15625 0 -3.421875 -1.328125q-1.265625 -1.328125 -1.265625 -3.734375q0 -2.484375 1.265625 -3.859375q1.28125 -1.375 3.328125 -1.375q1.984375 0 3.234375 1.34375q1.25 1.34375 1.25 3.796875q0 0.140625 -0.015625 0.4375l-7.34375 0q0.09375 1.625 0.921875 2.484375q0.828125 0.859375 2.0625 0.859375q0.90625 0 1.546875 -0.46875q0.65625 -0.484375 1.046875 -1.546875zm-5.484375 -2.703125l5.5 0q-0.109375 -1.234375 -0.625 -1.859375q-0.796875 -0.96875 -2.078125 -0.96875q-1.140625 0 -1.9375 0.78125q-0.78125 0.765625 -0.859375 2.046875zm8.438217 2.9375l1.65625 -0.265625q0.140625 1.0 0.765625 1.53125q0.640625 0.515625 1.78125 0.515625q1.15625 0 1.703125 -0.46875q0.5625 -0.46875 0.5625 -1.09375q0 -0.5625 -0.484375 -0.890625q-0.34375 -0.21875 -1.703125 -0.5625q-1.84375 -0.46875 -2.5625 -0.796875q-0.703125 -0.34375 -1.078125 -0.9375q-0.359375 -0.609375 -0.359375 -1.328125q0 -0.65625 0.296875 -1.21875q0.3125 -0.5625 0.828125 -0.9375q0.390625 -0.28125 1.0625 -0.484375q0.671875 -0.203125 1.4375 -0.203125q1.171875 0 2.046875 0.34375q0.875 0.328125 1.28125 0.90625q0.421875 0.5625 0.578125 1.515625l-1.625 0.21875q-0.109375 -0.75 -0.65625 -1.171875q-0.53125 -0.4375 -1.5 -0.4375q-1.15625 0 -1.640625 0.390625q-0.484375 0.375 -0.484375 0.875q0 0.328125 0.203125 0.59375q0.203125 0.265625 0.640625 0.4375q0.25 0.09375 1.46875 0.4375q1.765625 0.46875 2.46875 0.765625q0.703125 0.296875 1.09375 0.875q0.40625 0.578125 0.40625 1.4375q0 0.828125 -0.484375 1.578125q-0.484375 0.734375 -1.40625 1.140625q-0.921875 0.390625 -2.078125 0.390625q-1.921875 0 -2.9375 -0.796875q-1.0 -0.796875 -1.28125 -2.359375zm9.375 -1.984375q0 -2.734375 1.53125 -4.0625q1.265625 -1.09375 3.09375 -1.09375q2.03125 0 3.3125 1.34375q1.296875 1.328125 1.296875 3.671875q0 1.90625 -0.578125 3.0q-0.5625 1.078125 -1.65625 1.6875q-1.078125 0.59375 -2.375 0.59375q-2.0625 0 -3.34375 -1.328125q-1.28125 -1.328125 -1.28125 -3.8125zm1.71875 0q0 1.890625 0.828125 2.828125q0.828125 0.9375 2.078125 0.9375q1.25 0 2.0625 -0.9375q0.828125 -0.953125 0.828125 -2.890625q0 -1.828125 -0.828125 -2.765625q-0.828125 -0.9375 -2.0625 -0.9375q-1.25 0 -2.078125 0.9375q-0.828125 0.9375 -0.828125 2.828125zm15.735085 4.921875l0 -1.453125q-1.140625 1.671875 -3.125 1.671875q-0.8593674 0 -1.6249924 -0.328125q-0.75 -0.34375 -1.125 -0.84375q-0.359375 -0.5 -0.515625 -1.234375q-0.09375 -0.5 -0.09375 -1.5625l0 -6.109375l1.671875 0l0 5.46875q0 1.3125 0.09375 1.765625q0.15625 0.65625 0.671875 1.03125q0.515625 0.375 1.2656174 0.375q0.75 0 1.40625 -0.375q0.65625 -0.390625 0.921875 -1.046875q0.28125 -0.671875 0.28125 -1.9375l0 -5.28125l1.671875 0l0 9.859375l-1.5 0zm3.9069672 0l0 -9.859375l1.5 0l0 1.5q0.578125 -1.046875 1.0625 -1.375q0.484375 -0.34375 1.078125 -0.34375q0.84375 0 1.71875 0.546875l-0.578125 1.546875q-0.609375 -0.359375 -1.234375 -0.359375q-0.546875 0 -0.984375 0.328125q-0.421875 0.328125 -0.609375 0.90625q-0.28125 0.890625 -0.28125 1.953125l0 5.15625l-1.671875 0zm12.665802 -3.609375l1.640625 0.21875q-0.265625 1.6875 -1.375 2.65625q-1.109375 0.953125 -2.734375 0.953125q-2.015625 0 -3.25 -1.3125q-1.21875 -1.328125 -1.21875 -3.796875q0 -1.59375 0.515625 -2.78125q0.53125 -1.203125 1.609375 -1.796875q1.09375 -0.609375 2.359375 -0.609375q1.609375 0 2.625 0.8125q1.015625 0.8125 1.3125 2.3125l-1.625 0.25q-0.234375 -1.0 -0.828125 -1.5q-0.59375 -0.5 -1.421875 -0.5q-1.265625 0 -2.0625 0.90625q-0.78125 0.90625 -0.78125 2.859375q0 1.984375 0.765625 2.890625q0.765625 0.890625 1.984375 0.890625q0.984375 0 1.640625 -0.59375q0.65625 -0.609375 0.84375 -1.859375zm9.640625 0.4375l1.71875 0.21875q-0.40625 1.5 -1.515625 2.34375q-1.09375 0.828125 -2.8125 0.828125q-2.15625 0 -3.421875 -1.328125q-1.265625 -1.328125 -1.265625 -3.734375q0 -2.484375 1.265625 -3.859375q1.28125 -1.375 3.328125 -1.375q1.984375 0 3.234375 1.34375q1.25 1.34375 1.25 3.796875q0 0.140625 -0.015625 0.4375l-7.34375 0q0.09375 1.625 0.921875 2.484375q0.828125 0.859375 2.0625 0.859375q0.90625 0 1.546875 -0.46875q0.65625 -0.484375 1.046875 -1.546875zm-5.484375 -2.703125l5.5 0q-0.109375 -1.234375 -0.625 -1.859375q-0.796875 -0.96875 -2.078125 -0.96875q-1.140625 0 -1.9375 0.78125q-0.78125 0.765625 -0.859375 2.046875z" fill-rule="nonzero"></path><path fill="#000000" d="m40.676834 199.91475l0 -13.59375l2.71875 0l3.21875 9.625q0.4375 1.34375 0.640625 2.015625q0.234375 -0.75 0.734375 -2.1875l3.25 -9.453125l2.421875 0l0 13.59375l-1.734375 0l0 -11.390625l-3.953125 11.390625l-1.625 0l-3.9375 -11.578125l0 11.578125l-1.734375 0zm21.822052 -1.21875q-0.9375 0.796875 -1.796875 1.125q-0.859375 0.3125 -1.84375 0.3125q-1.609375 0 -2.484375 -0.78125q-0.875 -0.796875 -0.875 -2.03125q0 -0.734375 0.328125 -1.328125q0.328125 -0.59375 0.859375 -0.953125q0.53125 -0.359375 1.203125 -0.546875q0.5 -0.140625 1.484375 -0.25q2.03125 -0.25 2.984375 -0.578125q0 -0.34375 0 -0.4375q0 -1.015625 -0.46875 -1.4375q-0.640625 -0.5625 -1.90625 -0.5625q-1.171875 0 -1.734375 0.40625q-0.5625 0.40625 -0.828125 1.46875l-1.640625 -0.234375q0.234375 -1.046875 0.734375 -1.6875q0.515625 -0.640625 1.46875 -0.984375q0.96875 -0.359375 2.25 -0.359375q1.265625 0 2.046875 0.296875q0.78125 0.296875 1.15625 0.75q0.375 0.453125 0.515625 1.140625q0.09375 0.421875 0.09375 1.53125l0 2.234375q0 2.328125 0.09375 2.953125q0.109375 0.609375 0.4375 1.171875l-1.75 0q-0.265625 -0.515625 -0.328125 -1.21875zm-0.140625 -3.71875q-0.90625 0.359375 -2.734375 0.625q-1.03125 0.140625 -1.453125 0.328125q-0.421875 0.1875 -0.65625 0.546875q-0.234375 0.359375 -0.234375 0.796875q0 0.671875 0.5 1.125q0.515625 0.4375 1.484375 0.4375q0.96875 0 1.71875 -0.421875q0.75 -0.4375 1.109375 -1.15625q0.265625 -0.578125 0.265625 -1.671875l0 -0.609375zm4.078842 4.9375l0 -9.859375l1.5 0l0 1.40625q1.09375 -1.625 3.140625 -1.625q0.890625 0 1.640625 0.328125q0.75 0.3125 1.109375 0.84375q0.375 0.515625 0.53125 1.21875q0.09375 0.46875 0.09375 1.625l0 6.0625l-1.671875 0l0 -6.0q0 -1.015625 -0.203125 -1.515625q-0.1875 -0.515625 -0.6875 -0.8125q-0.5 -0.296875 -1.171875 -0.296875q-1.0625 0 -1.84375 0.671875q-0.765625 0.671875 -0.765625 2.578125l0 5.375l-1.671875 0zm16.813217 -1.21875q-0.9375 0.796875 -1.796875 1.125q-0.859375 0.3125 -1.84375 0.3125q-1.609375 0 -2.484375 -0.78125q-0.875 -0.796875 -0.875 -2.03125q0 -0.734375 0.328125 -1.328125q0.328125 -0.59375 0.859375 -0.953125q0.53125 -0.359375 1.203125 -0.546875q0.5 -0.140625 1.484375 -0.25q2.03125 -0.25 2.984375 -0.578125q0 -0.34375 0 -0.4375q0 -1.015625 -0.46875 -1.4375q-0.640625 -0.5625 -1.90625 -0.5625q-1.171875 0 -1.734375 0.40625q-0.5625 0.40625 -0.828125 1.46875l-1.640625 -0.234375q0.234375 -1.046875 0.734375 -1.6875q0.515625 -0.640625 1.46875 -0.984375q0.96875 -0.359375 2.25 -0.359375q1.265625 0 2.046875 0.296875q0.78125 0.296875 1.1562424 0.75q0.375 0.453125 0.515625 1.140625q0.09375 0.421875 0.09375 1.53125l0 2.234375q0 2.328125 0.09375 2.953125q0.109375 0.609375 0.4375 1.171875l-1.7499924 0q-0.265625 -0.515625 -0.328125 -1.21875zm-0.140625 -3.71875q-0.90625 0.359375 -2.734375 0.625q-1.03125 0.140625 -1.453125 0.328125q-0.421875 0.1875 -0.65625 0.546875q-0.234375 0.359375 -0.234375 0.796875q0 0.671875 0.5 1.125q0.515625 0.4375 1.484375 0.4375q0.96875 0 1.71875 -0.421875q0.75 -0.4375 1.109375 -1.15625q0.265625 -0.578125 0.265625 -1.671875l0 -0.609375zm3.7819595 5.75l1.609375 0.25q0.109375 0.75 0.578125 1.09375q0.609375 0.453125 1.6875 0.453125q1.171875 0 1.796875 -0.46875q0.625 -0.453125 0.859375 -1.28125q0.125 -0.515625 0.109375 -2.15625q-1.09375 1.296875 -2.71875 1.296875q-2.03125 0 -3.15625 -1.46875q-1.109375 -1.46875 -1.109375 -3.515625q0 -1.40625 0.515625 -2.59375q0.515625 -1.203125 1.484375 -1.84375q0.96875 -0.65625 2.265625 -0.65625q1.75 0 2.875 1.40625l0 -1.1875l1.546875 0l0 8.515625q0 2.3125 -0.46875 3.265625q-0.46875 0.96875 -1.484375 1.515625q-1.015625 0.5625 -2.5 0.5625q-1.765625 0 -2.859375 -0.796875q-1.078125 -0.796875 -1.03125 -2.390625zm1.375 -5.921875q0 1.953125 0.765625 2.84375q0.78125 0.890625 1.9375 0.890625q1.140625 0 1.921875 -0.890625q0.78125 -0.890625 0.78125 -2.78125q0 -1.8125 -0.8125 -2.71875q-0.796875 -0.921875 -1.921875 -0.921875q-1.109375 0 -1.890625 0.90625q-0.78125 0.890625 -0.78125 2.671875zm16.047592 1.9375l1.71875 0.21875q-0.40625 1.5 -1.515625 2.34375q-1.09375 0.828125 -2.8125 0.828125q-2.15625 0 -3.421875 -1.328125q-1.265625 -1.328125 -1.265625 -3.734375q0 -2.484375 1.265625 -3.859375q1.28125 -1.375 3.328125 -1.375q1.984375 0 3.234375 1.34375q1.25 1.34375 1.25 3.796875q0 0.140625 -0.015625 0.4375l-7.34375 0q0.09375 1.625 0.921875 2.484375q0.828125 0.859375 2.0625 0.859375q0.90625 0 1.546875 -0.46875q0.65625 -0.484375 1.046875 -1.546875zm-5.484375 -2.703125l5.5 0q-0.109375 -1.234375 -0.625 -1.859375q-0.796875 -0.96875 -2.078125 -0.96875q-1.140625 0 -1.9375 0.78125q-0.78125 0.765625 -0.859375 2.046875zm9.094467 5.875l0 -9.859375l1.5 0l0 1.5q0.578125 -1.046875 1.0625 -1.375q0.484375 -0.34375 1.078125 -0.34375q0.84375 0 1.71875 0.546875l-0.578125 1.546875q-0.609375 -0.359375 -1.234375 -0.359375q-0.546875 0 -0.984375 0.328125q-0.421875 0.328125 -0.609375 0.90625q-0.28125 0.890625 -0.28125 1.953125l0 5.15625l-1.671875 0z" fill-rule="nonzero"></path><path fill="#000000" fill-opacity="0.0" d="m324.73282 93.554596l-5.763794 88.72441" fill-rule="nonzero"></path><path stroke="#000000" stroke-width="2.0" stroke-linejoin="round" stroke-linecap="butt" d="m324.7328 93.554596l-5.2723694 81.160355" fill-rule="evenodd"></path><path fill="#000000" stroke="#000000" stroke-width="2.0" stroke-linecap="butt" d="m319.03384 181.28111c-1.8132019 -0.11778259 -3.1875916 -1.6831512 -3.0697937 -3.4963531c0.117767334 -1.8131866 1.6831665 -3.1875916 3.496338 -3.0697937c1.8132019 0.11778259 3.1875916 1.6831512 3.0698242 3.4963531c-0.11779785 1.8131866 -1.6831665 3.1875916 -3.4963684 3.0697937z" fill-rule="nonzero"></path><path fill="#000000" fill-opacity="0.0" d="m424.95065 56.167458l-105.98425 126.11024" fill-rule="nonzero"></path><path stroke="#000000" stroke-width="2.0" stroke-linejoin="round" stroke-linecap="butt" d="m424.95065 56.167458l-101.10748 120.30738" fill-rule="evenodd"></path><path fill="#000000" stroke="#000000" stroke-width="2.0" stroke-linecap="butt" d="m319.60977 181.51215c-1.3910217 -1.1690216 -1.5709839 -3.244339 -0.40194702 -4.6353607c1.1690063 -1.3910217 3.2443237 -1.5709839 4.6353455 -0.40194702c1.3910217 1.1690216 1.5709839 3.244339 0.40197754 4.6353607c-1.1690369 1.3910217 -3.2443542 1.5709839 -4.635376 0.40194702z" fill-rule="nonzero"></path><path fill="#000000" fill-opacity="0.0" d="m519.2769 81.61942l-200.31497 100.661415" fill-rule="nonzero"></path><path stroke="#000000" stroke-width="2.0" stroke-linejoin="round" stroke-linecap="butt" d="m519.2769 81.61942l-193.54205 97.25791" fill-rule="evenodd"></path><path fill="#000000" stroke="#000000" stroke-width="2.0" stroke-linecap="butt" d="m319.85547 181.83183c-0.81585693 -1.6235504 -0.1611023 -3.6010895 1.4624634 -4.4169464c1.6235352 -0.8158722 3.6010742 -0.1611023 4.416931 1.4624481c0.81585693 1.6235504 0.1611023 3.6010895 -1.4624329 4.4169464c-1.6235657 0.81585693 -3.6011047 0.1611023 -4.4169617 -1.4624481z" fill-rule="nonzero"></path><path fill="#000000" fill-opacity="0.0" d="m558.647 182.27559l-239.68503 0" fill-rule="nonzero"></path><path stroke="#000000" stroke-width="2.0" stroke-linejoin="round" stroke-linecap="butt" d="m558.647 182.27559l-232.10504 0" fill-rule="evenodd"></path><path fill="#000000" stroke="#000000" stroke-width="2.0" stroke-linecap="butt" d="m319.96194 182.27559c0 -1.8170166 1.472992 -3.2899933 3.2900085 -3.2899933c1.8170166 0 3.289978 1.4729767 3.289978 3.2899933c0 1.8170166 -1.4729614 3.2900085 -3.289978 3.2900085c-1.8170166 0 -3.2900085 -1.472992 -3.2900085 -3.2900085z" fill-rule="nonzero"></path><path fill="#000000" fill-opacity="0.0" d="m519.2769 284.31235l-200.31497 -102.04726" fill-rule="nonzero"></path><path stroke="#000000" stroke-width="2.0" stroke-linejoin="round" stroke-linecap="butt" d="m519.2769 284.31235l-193.56088 -98.60649" fill-rule="evenodd"></path><path fill="#000000" stroke="#000000" stroke-width="2.0" stroke-linecap="butt" d="m319.853 182.71902c0.82476807 -1.6190338 2.8058777 -2.262909 4.4249268 -1.4381104c1.6190186 0.8247833 2.2628784 2.8059082 1.4381104 4.424942c-0.8247986 1.6190338 -2.8059082 2.2628937 -4.4249573 1.4380951c-1.6190186 -0.8247833 -2.2628784 -2.805893 -1.4380798 -4.4249268z" fill-rule="nonzero"></path><path fill="#000000" fill-opacity="0.0" d="m424.95065 309.763l-105.98425 -127.49608" fill-rule="nonzero"></path><path stroke="#000000" stroke-width="2.0" stroke-linejoin="round" stroke-linecap="butt" d="m424.95065 309.76297l-101.13873 -121.66705" fill-rule="evenodd"></path><path fill="#000000" stroke="#000000" stroke-width="2.0" stroke-linecap="butt" d="m319.60565 183.03592c1.3972778 -1.1615295 3.4715881 -0.9704132 4.6331177 0.42687988c1.1615295 1.3972778 0.97042847 3.4716034 -0.42687988 4.633133c-1.3972778 1.1615295 -3.4715881 0.9704132 -4.6331177 -0.42687988c-1.1615295 -1.3972778 -0.97042847 -3.4716034 0.42687988 -4.633133z" fill-rule="nonzero"></path><path fill="#000000" fill-opacity="0.0" d="m336.22964 265.2362l-17.259827 -82.96062" fill-rule="nonzero"></path><path stroke="#000000" stroke-width="2.0" stroke-linejoin="round" stroke-linecap="butt" d="m336.22964 265.2362l-15.715881 -75.53952" fill-rule="evenodd"></path><path fill="#000000" stroke="#000000" stroke-width="2.0" stroke-linecap="butt" d="m319.1735 183.25462c1.7789307 -0.37010193 3.5210571 0.77197266 3.8911743 2.5509033c0.37008667 1.7789154 -0.77197266 3.5210571 -2.5509033 3.891159c-1.7789307 0.37010193 -3.5210571 -0.77197266 -3.8911438 -2.5509033c-0.3701172 -1.7789154 0.77197266 -3.5210571 2.5508728 -3.891159z" fill-rule="nonzero"></path><path fill="#000000" fill-opacity="0.0" d="m358.9344 145.72704l197.51178 0l0 35.716537l-197.51178 0z" fill-rule="nonzero"></path><path fill="#000000" d="m383.97836 172.64703l0 -13.59375l5.125 0q1.359375 0 2.078125 0.125q1.0 0.171875 1.671875 0.640625q0.671875 0.46875 1.078125 1.3125q0.421875 0.84375 0.421875 1.84375q0 1.734375 -1.109375 2.9375q-1.09375 1.203125 -3.984375 1.203125l-3.484375 0l0 5.53125l-1.796875 0zm1.796875 -7.140625l3.515625 0q1.75 0 2.46875 -0.640625q0.734375 -0.65625 0.734375 -1.828125q0 -0.859375 -0.4375 -1.46875q-0.421875 -0.609375 -1.125 -0.796875q-0.453125 -0.125 -1.671875 -0.125l-3.484375 0l0 4.859375zm16.881073 7.140625l0 -1.453125q-1.140625 1.671875 -3.125 1.671875q-0.859375 0 -1.625 -0.328125q-0.75 -0.34375 -1.125 -0.84375q-0.359375 -0.5 -0.515625 -1.234375q-0.09375 -0.5 -0.09375 -1.5625l0 -6.109375l1.671875 0l0 5.46875q0 1.3125 0.09375 1.765625q0.15625 0.65625 0.671875 1.03125q0.515625 0.375 1.265625 0.375q0.75 0 1.40625 -0.375q0.65625 -0.390625 0.921875 -1.046875q0.28125 -0.671875 0.28125 -1.9375l0 -5.28125l1.671875 0l0 9.859375l-1.5 0zm5.469452 0l-1.546875 0l0 -13.59375l1.65625 0l0 4.84375q1.0625 -1.328125 2.703125 -1.328125q0.90625 0 1.71875 0.375q0.8125 0.359375 1.328125 1.03125q0.53125 0.65625 0.828125 1.59375q0.296875 0.9375 0.296875 2.0q0 2.53125 -1.25 3.921875q-1.25 1.375 -3.0 1.375q-1.75 0 -2.734375 -1.453125l0 1.234375zm-0.015625 -5.0q0 1.765625 0.46875 2.5625q0.796875 1.28125 2.140625 1.28125q1.09375 0 1.890625 -0.9375q0.796875 -0.953125 0.796875 -2.84375q0 -1.921875 -0.765625 -2.84375q-0.765625 -0.921875 -1.84375 -0.921875q-1.09375 0 -1.890625 0.953125q-0.796875 0.953125 -0.796875 2.75zm8.813232 5.0l0 -13.59375l1.671875 0l0 13.59375l-1.671875 0zm4.191681 -11.6875l0 -1.90625l1.671875 0l0 1.90625l-1.671875 0zm0 11.6875l0 -9.859375l1.671875 0l0 9.859375l-1.671875 0zm3.4573364 -2.9375l1.65625 -0.265625q0.140625 1.0 0.765625 1.53125q0.640625 0.515625 1.78125 0.515625q1.15625 0 1.703125 -0.46875q0.5625 -0.46875 0.5625 -1.09375q0 -0.5625 -0.484375 -0.890625q-0.34375 -0.21875 -1.703125 -0.5625q-1.84375 -0.46875 -2.5625 -0.796875q-0.703125 -0.34375 -1.078125 -0.9375q-0.359375 -0.609375 -0.359375 -1.328125q0 -0.65625 0.296875 -1.21875q0.3125 -0.5625 0.828125 -0.9375q0.390625 -0.28125 1.0625 -0.484375q0.671875 -0.203125 1.4375 -0.203125q1.171875 0 2.046875 0.34375q0.875 0.328125 1.28125 0.90625q0.421875 0.5625 0.578125 1.515625l-1.625 0.21875q-0.109375 -0.75 -0.65625 -1.171875q-0.53125 -0.4375 -1.5 -0.4375q-1.15625 0 -1.640625 0.390625q-0.484375 0.375 -0.484375 0.875q0 0.328125 0.203125 0.59375q0.203125 0.265625 0.640625 0.4375q0.25 0.09375 1.46875 0.4375q1.765625 0.46875 2.46875 0.765625q0.703125 0.296875 1.09375 0.875q0.40625 0.578125 0.40625 1.4375q0 0.828125 -0.484375 1.578125q-0.484375 0.734375 -1.40625 1.140625q-0.921875 0.390625 -2.078125 0.390625q-1.921875 0 -2.9375 -0.796875q-1.0 -0.796875 -1.28125 -2.359375zm10.0 2.9375l0 -13.59375l1.671875 0l0 4.875q1.171875 -1.359375 2.953125 -1.359375q1.09375 0 1.890625 0.4375q0.8125 0.421875 1.15625 1.1875q0.359375 0.765625 0.359375 2.203125l0 6.25l-1.671875 0l0 -6.25q0 -1.25 -0.546875 -1.8125q-0.546875 -0.578125 -1.53125 -0.578125q-0.75 0 -1.40625 0.390625q-0.640625 0.375 -0.921875 1.046875q-0.28125 0.65625 -0.28125 1.8125l0 5.390625l-1.671875 0zm9.735077 -4.078125l0 -1.6875l5.125 0l0 1.6875l-5.125 0zm6.462677 -0.296875l1.6875 -0.140625q0.125 1.015625 0.5625 1.671875q0.4375 0.65625 1.359375 1.0625q0.9375 0.40625 2.09375 0.40625q1.03125 0 1.8125 -0.3125q0.796875 -0.3125 1.1875 -0.84375q0.390625 -0.53125 0.390625 -1.15625q0 -0.640625 -0.375 -1.109375q-0.375 -0.484375 -1.234375 -0.8125q-0.546875 -0.21875 -2.421875 -0.65625q-1.875 -0.453125 -2.625 -0.859375q-0.96875 -0.515625 -1.453125 -1.265625q-0.46875 -0.75 -0.46875 -1.6875q0 -1.03125 0.578125 -1.921875q0.59375 -0.90625 1.703125 -1.359375q1.125 -0.46875 2.5 -0.46875q1.515625 0 2.671875 0.484375q1.15625 0.484375 1.765625 1.4375q0.625 0.9375 0.671875 2.140625l-1.71875 0.125q-0.140625 -1.28125 -0.953125 -1.9375q-0.796875 -0.671875 -2.359375 -0.671875q-1.625 0 -2.375 0.609375q-0.75 0.59375 -0.75 1.4375q0 0.734375 0.53125 1.203125q0.515625 0.46875 2.703125 0.96875q2.203125 0.5 3.015625 0.875q1.1875 0.546875 1.75 1.390625q0.578125 0.828125 0.578125 1.921875q0 1.09375 -0.625 2.0625q-0.625 0.953125 -1.796875 1.484375q-1.15625 0.53125 -2.609375 0.53125q-1.84375 0 -3.09375 -0.53125q-1.25 -0.546875 -1.96875 -1.625q-0.703125 -1.078125 -0.734375 -2.453125zm19.287323 4.375l0 -1.453125q-1.140625 1.671875 -3.125 1.671875q-0.859375 0 -1.625 -0.328125q-0.75 -0.34375 -1.125 -0.84375q-0.359375 -0.5 -0.515625 -1.234375q-0.09375 -0.5 -0.09375 -1.5625l0 -6.109375l1.671875 0l0 5.46875q0 1.3125 0.09375 1.765625q0.15625 0.65625 0.671875 1.03125q0.515625 0.375 1.265625 0.375q0.75 0 1.40625 -0.375q0.65625 -0.390625 0.921875 -1.046875q0.28125 -0.671875 0.28125 -1.9375l0 -5.28125l1.671875 0l0 9.859375l-1.5 0zm5.4694824 0l-1.546875 0l0 -13.59375l1.65625 0l0 4.84375q1.0625 -1.328125 2.703125 -1.328125q0.90625 0 1.71875 0.375q0.8125 0.359375 1.328125 1.03125q0.53125 0.65625 0.828125 1.59375q0.296875 0.9375 0.296875 2.0q0 2.53125 -1.25 3.921875q-1.25 1.375 -3.0 1.375q-1.75 0 -2.734375 -1.453125l0 1.234375zm-0.015625 -5.0q0 1.765625 0.46875 2.5625q0.796875 1.28125 2.140625 1.28125q1.09375 0 1.890625 -0.9375q0.796875 -0.953125 0.796875 -2.84375q0 -1.921875 -0.765625 -2.84375q-0.765625 -0.921875 -1.84375 -0.921875q-1.09375 0 -1.890625 0.953125q-0.796875 0.953125 -0.796875 2.75zm8.172577 2.0625l1.65625 -0.265625q0.140625 1.0 0.765625 1.53125q0.640625 0.515625 1.78125 0.515625q1.15625 0 1.703125 -0.46875q0.5625 -0.46875 0.5625 -1.09375q0 -0.5625 -0.484375 -0.890625q-0.34375 -0.21875 -1.703125 -0.5625q-1.84375 -0.46875 -2.5625 -0.796875q-0.703125 -0.34375 -1.078125 -0.9375q-0.359375 -0.609375 -0.359375 -1.328125q0 -0.65625 0.296875 -1.21875q0.3125 -0.5625 0.828125 -0.9375q0.390625 -0.28125 1.0625 -0.484375q0.671875 -0.203125 1.4375 -0.203125q1.171875 0 2.046875 0.34375q0.875 0.328125 1.28125 0.90625q0.421875 0.5625 0.578125 1.515625l-1.625 0.21875q-0.109375 -0.75 -0.65625 -1.171875q-0.53125 -0.4375 -1.5 -0.4375q-1.15625 0 -1.640625 0.390625q-0.484375 0.375 -0.484375 0.875q0 0.328125 0.203125 0.59375q0.203125 0.265625 0.640625 0.4375q0.25 0.09375 1.46875 0.4375q1.765625 0.46875 2.46875 0.765625q0.703125 0.296875 1.09375 0.875q0.40625 0.578125 0.40625 1.4375q0 0.828125 -0.484375 1.578125q-0.484375 0.734375 -1.40625 1.140625q-0.921875 0.390625 -2.078125 0.390625q-1.921875 0 -2.9375 -0.796875q-1.0 -0.796875 -1.28125 -2.359375zm16.4375 -0.671875l1.640625 0.21875q-0.265625 1.6875 -1.375 2.65625q-1.109375 0.953125 -2.734375 0.953125q-2.015625 0 -3.25 -1.3125q-1.21875 -1.328125 -1.21875 -3.796875q0 -1.59375 0.515625 -2.78125q0.53125 -1.203125 1.609375 -1.796875q1.09375 -0.609375 2.359375 -0.609375q1.609375 0 2.625 0.8125q1.015625 0.8125 1.3125 2.3125l-1.625 0.25q-0.234375 -1.0 -0.828125 -1.5q-0.59375 -0.5 -1.421875 -0.5q-1.265625 0 -2.0625 0.90625q-0.78125 0.90625 -0.78125 2.859375q0 1.984375 0.765625 2.890625q0.765625 0.890625 1.984375 0.890625q0.984375 0 1.640625 -0.59375q0.65625 -0.609375 0.84375 -1.859375zm2.875 3.609375l0 -9.859375l1.5 0l0 1.5q0.578125 -1.046875 1.0625 -1.375q0.484375 -0.34375 1.078125 -0.34375q0.84375 0 1.71875 0.546875l-0.578125 1.546875q-0.609375 -0.359375 -1.234375 -0.359375q-0.546875 0 -0.984375 0.328125q-0.421875 0.328125 -0.609375 0.90625q-0.28125 0.890625 -0.28125 1.953125l0 5.15625l-1.671875 0zm6.243927 -11.6875l0 -1.90625l1.671875 0l0 1.90625l-1.671875 0zm0 11.6875l0 -9.859375l1.671875 0l0 9.859375l-1.671875 0zm5.676056 0l-1.546875 0l0 -13.59375l1.65625 0l0 4.84375q1.0625 -1.328125 2.703125 -1.328125q0.90625 0 1.71875 0.375q0.8125 0.359375 1.328125 1.03125q0.53125 0.65625 0.828125 1.59375q0.296875 0.9375 0.296875 2.0q0 2.53125 -1.25 3.921875q-1.25 1.375 -3.0 1.375q-1.75 0 -2.734375 -1.453125l0 1.234375zm-0.015625 -5.0q0 1.765625 0.46875 2.5625q0.796875 1.28125 2.140625 1.28125q1.09375 0 1.890625 -0.9375q0.796875 -0.953125 0.796875 -2.84375q0 -1.921875 -0.765625 -2.84375q-0.765625 -0.921875 -1.84375 -0.921875q-1.09375 0 -1.890625 0.953125q-0.796875 0.953125 -0.796875 2.75zm15.594482 1.828125l1.71875 0.21875q-0.40625 1.5 -1.515625 2.34375q-1.09375 0.828125 -2.8125 0.828125q-2.15625 0 -3.421875 -1.328125q-1.265625 -1.328125 -1.265625 -3.734375q0 -2.484375 1.265625 -3.859375q1.28125 -1.375 3.328125 -1.375q1.984375 0 3.234375 1.34375q1.25 1.34375 1.25 3.796875q0 0.140625 -0.015625 0.4375l-7.34375 0q0.09375 1.625 0.921875 2.484375q0.828125 0.859375 2.0625 0.859375q0.90625 0 1.546875 -0.46875q0.65625 -0.484375 1.046875 -1.546875zm-5.484375 -2.703125l5.5 0q-0.109375 -1.234375 -0.625 -1.859375q-0.796875 -0.96875 -2.078125 -0.96875q-1.140625 0 -1.9375 0.78125q-0.78125 0.765625 -0.859375 2.046875z" fill-rule="nonzero"></path><path fill="#000000" fill-opacity="0.0" d="m134.98425 181.99475l144.62991 0.28346252" fill-rule="nonzero"></path><path stroke="#000000" stroke-width="2.0" stroke-linejoin="round" stroke-linecap="butt" d="m134.98425 181.99475l132.62994 0.25994873" fill-rule="evenodd"></path><path fill="#000000" stroke="#000000" stroke-width="2.0" stroke-linecap="butt" d="m267.60773 185.55815l9.082642 -3.2856598l-9.069702 -3.3212585z" fill-rule="evenodd"></path></g></svg>

