<?xml version="1.0" standalone="yes"?>

<svg version="1.1" viewBox="0.0 0.0 381.74015748031496 364.5538057742782" fill="none" stroke="none" stroke-linecap="square" stroke-miterlimit="10" xmlns="http://www.w3.org/2000/svg" xmlns:xlink="http://www.w3.org/1999/xlink"><clipPath id="p.0"><path d="m0 0l381.74014 0l0 364.5538l-381.74014 0l0 -364.5538z" clip-rule="nonzero"></path></clipPath><g clip-path="url(#p.0)"><path fill="#000000" fill-opacity="0.0" d="m0 0l381.74014 0l0 364.5538l-381.74014 0z" fill-rule="nonzero"></path><path fill="#cfe2f3" d="m31.598425 182.2769l0 0c0 -10.87175 8.813292 -19.685043 19.685041 -19.685043l0 0c5.2207947 0 10.22776 2.0739594 13.919422 5.765625c3.6916656 3.6916504 5.7656174 8.698624 5.7656174 13.919418l0 0c0 10.87175 -8.813293 19.685043 -19.68504 19.685043l0 0c-10.87175 0 -19.685041 -8.813293 -19.685041 -19.685043z" fill-rule="nonzero"></path><path stroke="#000000" stroke-width="2.0" stroke-linejoin="round" stroke-linecap="butt" d="m31.598425 182.2769l0 0c0 -10.87175 8.813292 -19.685043 19.685041 -19.685043l0 0c5.2207947 0 10.22776 2.0739594 13.919422 5.765625c3.6916656 3.6916504 5.7656174 8.698624 5.7656174 13.919418l0 0c0 10.87175 -8.813293 19.685043 -19.68504 19.685043l0 0c-10.87175 0 -19.685041 -8.813293 -19.685041 -19.685043z" fill-rule="nonzero"></path><path fill="#cfe2f3" d="m171.18504 42.24803l0 0c0 -10.871748 8.813293 -19.68504 19.685028 -19.68504l0 0c5.22081 0 10.227768 2.0739536 13.919434 5.7656155c3.6916656 3.69166 5.7656097 8.698626 5.7656097 13.919424l0 0c0 10.871746 -8.813293 19.68504 -19.685043 19.68504l0 0c-10.871735 0 -19.685028 -8.813293 -19.685028 -19.68504z" fill-rule="nonzero"></path><path stroke="#000000" stroke-width="2.0" stroke-linejoin="round" stroke-linecap="butt" d="m171.18504 42.24803l0 0c0 -10.871748 8.813293 -19.68504 19.685028 -19.68504l0 0c5.22081 0 10.227768 2.0739536 13.919434 5.7656155c3.6916656 3.69166 5.7656097 8.698626 5.7656097 13.919424l0 0c0 10.871746 -8.813293 19.68504 -19.685043 19.68504l0 0c-10.871735 0 -19.685028 -8.813293 -19.685028 -19.68504z" fill-rule="nonzero"></path><path fill="#cfe2f3" d="m310.64697 182.27559l0 0c0 -10.87175 8.813293 -19.685043 19.685059 -19.685043l0 0c5.2207947 0 10.227753 2.0739594 13.919403 5.765625c3.691681 3.6916504 5.765625 8.698624 5.765625 13.919418l0 0c0 10.87175 -8.813293 19.685043 -19.685028 19.685043l0 0c-10.871765 0 -19.685059 -8.813293 -19.685059 -19.685043z" fill-rule="nonzero"></path><path stroke="#000000" stroke-width="2.0" stroke-linejoin="round" stroke-linecap="butt" d="m310.64697 182.27559l0 0c0 -10.87175 8.813293 -19.685043 19.685059 -19.685043l0 0c5.2207947 0 10.227753 2.0739594 13.919403 5.765625c3.691681 3.6916504 5.765625 8.698624 5.765625 13.919418l0 0c0 10.87175 -8.813293 19.685043 -19.685028 19.685043l0 0c-10.871765 0 -19.685059 -8.813293 -19.685059 -19.685043z" fill-rule="nonzero"></path><path fill="#cfe2f3" d="m171.18504 323.6824l0 0c0 -10.871735 8.813293 -19.685028 19.685028 -19.685028l0 0c5.22081 0 10.227768 2.073944 13.919434 5.765625c3.6916656 3.6916504 5.7656097 8.698608 5.7656097 13.919403l0 0c0 10.871765 -8.813293 19.685059 -19.685043 19.685059l0 0c-10.871735 0 -19.685028 -8.813293 -19.685028 -19.685059z" fill-rule="nonzero"></path><path stroke="#000000" stroke-width="2.0" stroke-linejoin="round" stroke-linecap="butt" d="m171.18504 323.6824l0 0c0 -10.871735 8.813293 -19.685028 19.685028 -19.685028l0 0c5.22081 0 10.227768 2.073944 13.919434 5.765625c3.6916656 3.6916504 5.7656097 8.698608 5.7656097 13.919403l0 0c0 10.871765 -8.813293 19.685059 -19.685043 19.685059l0 0c-10.871735 0 -19.685028 -8.813293 -19.685028 -19.685059z" fill-rule="nonzero"></path><path fill="#cfe2f3" d="m70.96719 79.63517l0 0c0 -10.87175 8.813293 -19.68504 19.685036 -19.68504l0 0c5.2208023 0 10.227768 2.0739555 13.919426 5.7656136c3.691658 3.6916656 5.7656174 8.698631 5.7656174 13.919426l0 0c0 10.87175 -8.813293 19.685043 -19.685043 19.685043l0 0c-10.871742 0 -19.685036 -8.813293 -19.685036 -19.685043z" fill-rule="nonzero"></path><path stroke="#000000" stroke-width="2.0" stroke-linejoin="round" stroke-linecap="butt" d="m70.96719 79.63517l0 0c0 -10.87175 8.813293 -19.68504 19.685036 -19.68504l0 0c5.2208023 0 10.227768 2.0739555 13.919426 5.7656136c3.691658 3.6916656 5.7656174 8.698631 5.7656174 13.919426l0 0c0 10.87175 -8.813293 19.685043 -19.685043 19.685043l0 0c-10.871742 0 -19.685036 -8.813293 -19.685036 -19.685043z" fill-rule="nonzero"></path><path fill="#cfe2f3" d="m271.27692 81.61942l0 0c0 -10.87175 8.813293 -19.68504 19.685028 -19.68504l0 0c5.2207947 0 10.227753 2.0739555 13.919434 5.7656136c3.6916504 3.691658 5.7655945 8.698631 5.7655945 13.919426l0 0c0 10.87175 -8.813293 19.685036 -19.685028 19.685036l0 0c-10.871735 0 -19.685028 -8.813286 -19.685028 -19.685036z" fill-rule="nonzero"></path><path stroke="#000000" stroke-width="2.0" stroke-linejoin="round" stroke-linecap="butt" d="m271.27692 81.61942l0 0c0 -10.87175 8.813293 -19.68504 19.685028 -19.68504l0 0c5.2207947 0 10.227753 2.0739555 13.919434 5.7656136c3.6916504 3.691658 5.7655945 8.698631 5.7655945 13.919426l0 0c0 10.87175 -8.813293 19.685036 -19.685028 19.685036l0 0c-10.871735 0 -19.685028 -8.813286 -19.685028 -19.685036z" fill-rule="nonzero"></path><path fill="#cfe2f3" d="m271.27692 284.31235l0 0c0 -10.871765 8.813293 -19.685059 19.685028 -19.685059l0 0c5.2207947 0 10.227753 2.0739746 13.919434 5.765625c3.6916504 3.6916504 5.7655945 8.698639 5.7655945 13.919434l0 0c0 10.871735 -8.813293 19.685028 -19.685028 19.685028l0 0c-10.871735 0 -19.685028 -8.813293 -19.685028 -19.685028z" fill-rule="nonzero"></path><path stroke="#000000" stroke-width="2.0" stroke-linejoin="round" stroke-linecap="butt" d="m271.27692 284.31235l0 0c0 -10.871765 8.813293 -19.685059 19.685028 -19.685059l0 0c5.2207947 0 10.227753 2.0739746 13.919434 5.765625c3.6916504 3.6916504 5.7655945 8.698639 5.7655945 13.919434l0 0c0 10.871735 -8.813293 19.685028 -19.685028 19.685028l0 0c-10.871735 0 -19.685028 -8.813293 -19.685028 -19.685028z" fill-rule="nonzero"></path><path fill="#cfe2f3" d="m68.54462 284.92126l0 0c0 -10.871765 8.813293 -19.685059 19.685043 -19.685059l0 0c5.2207947 0 10.22776 2.0739746 13.919426 5.765625c3.691658 3.6916504 5.7656097 8.698639 5.7656097 13.919434l0 0c0 10.871735 -8.813293 19.685028 -19.685036 19.685028l0 0c-10.87175 0 -19.685043 -8.813293 -19.685043 -19.685028z" fill-rule="nonzero"></path><path stroke="#000000" stroke-width="2.0" stroke-linejoin="round" stroke-linecap="butt" d="m68.54462 284.92126l0 0c0 -10.871765 8.813293 -19.685059 19.685043 -19.685059l0 0c5.2207947 0 10.22776 2.0739746 13.919426 5.765625c3.691658 3.6916504 5.7656097 8.698639 5.7656097 13.919434l0 0c0 10.871735 -8.813293 19.685028 -19.685036 19.685028l0 0c-10.87175 0 -19.685043 -8.813293 -19.685043 -19.685028z" fill-rule="nonzero"></path><path fill="#000000" fill-opacity="0.0" d="m86.03937 183.2546l209.98425 0" fill-rule="nonzero"></path><path stroke="#000000" stroke-width="2.0" stroke-linejoin="round" stroke-linecap="butt" d="m86.03937 183.2546l209.98425 0" fill-rule="nonzero"></path><path fill="#000000" fill-opacity="0.0" d="m190.5433 76.80577l0 215.81102" fill-rule="nonzero"></path><path stroke="#000000" stroke-width="2.0" stroke-linejoin="round" stroke-linecap="butt" d="m190.5433 76.80577l0 215.81102" fill-rule="nonzero"></path><path fill="#000000" fill-opacity="0.0" d="m110.8294 262.48557l157.48032 -157.48032" fill-rule="nonzero"></path><path stroke="#000000" stroke-width="2.0" stroke-linejoin="round" stroke-linecap="butt" d="m110.8294 262.48557l157.48032 -157.48032" fill-rule="nonzero"></path><path fill="#000000" fill-opacity="0.0" d="m108.175255 102.08137l157.25983 157.25986" fill-rule="nonzero"></path><path stroke="#000000" stroke-width="2.0" stroke-linejoin="round" stroke-linecap="butt" d="m108.175255 102.08137l157.25983 157.25986" fill-rule="nonzero"></path><path fill="#cfe2f3" d="m140.66895 170.39452l0 0c-0.9720764 -7.371887 2.2194366 -14.669617 8.220261 -18.796494c6.000824 -4.1268616 13.758545 -4.3591003 19.981277 -0.59817505l0 0c2.2042847 -4.286316 6.2387543 -7.2457275 10.883087 -7.9830627c4.6443176 -0.7373352 9.352997 0.83399963 12.701736 4.238739l0 0c1.8777618 -3.886261 5.564789 -6.4973297 9.752716 -6.906662c4.1879425 -0.40934753 8.284088 1.440979 10.834915 4.8943787l0 0c3.392456 -4.1194153 8.7899475 -5.8538666 13.856934 -4.452835c5.066986 1.4010315 8.893402 5.685898 9.823532 11.000534l0 0c4.1563263 1.1699371 7.618469 4.144058 9.491898 8.153961c1.8734436 4.009903 1.9743958 8.662201 0.27679443 12.754929l0 0c4.0927734 5.4969635 5.050171 12.821594 2.514923 19.240479c-2.5352478 6.4188843 -8.182266 10.967667 -14.833694 11.9487915c-0.046875 6.024353 -3.24852 11.552231 -8.37088 14.452942c-5.122345 2.900711 -11.36554 2.7212982 -16.323166 -0.46907043c-2.1116943 7.21521 -8.055374 12.524078 -15.263184 13.633011c-7.2078094 1.1089172 -14.387573 -2.1809235 -18.437393 -8.448181c-4.9642334 3.089157 -10.920898 3.9790497 -16.526276 2.468933c-5.6053925 -1.5101318 -10.387344 -5.293045 -13.267151 -10.495422l0 0c-5.072815 0.6125946 -9.977524 -2.0996246 -12.279938 -6.790573c-2.3024292 -4.6909637 -1.5124207 -10.362091 1.9779358 -14.1987915l0 0c-4.5250854 -2.7484436 -6.8340607 -8.202255 -5.72287 -13.517502c1.1111755 -5.3152313 5.3907166 -9.287445 10.606995 -9.845276z" fill-rule="nonzero"></path><path fill="#000000" fill-opacity="0.0" d="m135.68456 194.04141l0 0c2.1354065 1.2969971 4.602295 1.8853455 7.0694427 1.6860504m3.2314453 19.303802c1.0609741 -0.12812805 2.1009216 -0.39944458 3.0930328 -0.8069458m26.698914 8.833099c-0.7462158 -1.1548004 -1.3709869 -2.3888092 -1.8636627 -3.6809845m35.56552 -1.5040741l0 0c0.3849945 -1.315445 0.63442993 -2.6693115 0.74417114 -4.039032m23.948944 -9.944321c0.049926758 -6.413864 -3.4802094 -12.286453 -9.074097 -15.095337m21.392761 -16.093277c-0.9059143 2.1840363 -2.2888947 4.121475 -4.040497 5.660385m-5.727356 -26.56984l0 0c0.15435791 0.881958 0.2257843 1.7771759 0.21331787 2.6732483m-23.893372 -9.220673l0 0c-0.84625244 1.0275879 -1.5434418 2.1759033 -2.0698853 3.409195m-18.517944 -1.3973694l0 0c-0.45098877 0.9333496 -0.787735 1.92099 -1.002533 2.9401855m-22.582642 0.8042145l0 0c1.3167267 0.79582214 2.5348816 1.7536621 3.6277008 2.8524933m-31.828873 16.542282l0 0c0.13398743 1.016037 0.3456726 2.0195465 0.6331024 3.0011444" fill-rule="nonzero"></path><path stroke="#000000" stroke-width="2.0" stroke-linejoin="round" stroke-linecap="butt" d="m140.66895 170.39452l0 0c-0.9720764 -7.371887 2.2194366 -14.669617 8.220261 -18.796494c6.000824 -4.1268616 13.758545 -4.3591003 19.981277 -0.59817505l0 0c2.2042847 -4.286316 6.2387543 -7.2457275 10.883087 -7.9830627c4.6443176 -0.7373352 9.352997 0.83399963 12.701736 4.238739l0 0c1.8777618 -3.886261 5.564789 -6.4973297 9.752716 -6.906662c4.1879425 -0.40934753 8.284088 1.440979 10.834915 4.8943787l0 0c3.392456 -4.1194153 8.7899475 -5.8538666 13.856934 -4.452835c5.066986 1.4010315 8.893402 5.685898 9.823532 11.000534l0 0c4.1563263 1.1699371 7.618469 4.144058 9.491898 8.153961c1.8734436 4.009903 1.9743958 8.662201 0.27679443 12.754929l0 0c4.0927734 5.4969635 5.050171 12.821594 2.514923 19.240479c-2.5352478 6.4188843 -8.182266 10.967667 -14.833694 11.9487915c-0.046875 6.024353 -3.24852 11.552231 -8.37088 14.452942c-5.122345 2.900711 -11.36554 2.7212982 -16.323166 -0.46907043c-2.1116943 7.21521 -8.055374 12.524078 -15.263184 13.633011c-7.2078094 1.1089172 -14.387573 -2.1809235 -18.437393 -8.448181c-4.9642334 3.089157 -10.920898 3.9790497 -16.526276 2.468933c-5.6053925 -1.5101318 -10.387344 -5.293045 -13.267151 -10.495422l0 0c-5.072815 0.6125946 -9.977524 -2.0996246 -12.279938 -6.790573c-2.3024292 -4.6909637 -1.5124207 -10.362091 1.9779358 -14.1987915l0 0c-4.5250854 -2.7484436 -6.8340607 -8.202255 -5.72287 -13.517502c1.1111755 -5.3152313 5.3907166 -9.287445 10.606995 -9.845276z" fill-rule="nonzero"></path><path stroke="#000000" stroke-width="2.0" stroke-linejoin="round" stroke-linecap="butt" d="m135.68456 194.04141l0 0c2.1354065 1.2969971 4.602295 1.8853455 7.0694427 1.6860504m3.2314453 19.303802c1.0609741 -0.12812805 2.1009216 -0.39944458 3.0930328 -0.8069458m26.698914 8.833099c-0.7462158 -1.1548004 -1.3709869 -2.3888092 -1.8636627 -3.6809845m35.56552 -1.5040741l0 0c0.3849945 -1.315445 0.63442993 -2.6693115 0.74417114 -4.039032m23.948944 -9.944321c0.049926758 -6.413864 -3.4802094 -12.286453 -9.074097 -15.095337m21.392761 -16.093277c-0.9059143 2.1840363 -2.2888947 4.121475 -4.040497 5.660385m-5.727356 -26.56984l0 0c0.15435791 0.881958 0.2257843 1.7771759 0.21331787 2.6732483m-23.893372 -9.220673l0 0c-0.84625244 1.0275879 -1.5434418 2.1759033 -2.0698853 3.409195m-18.517944 -1.3973694l0 0c-0.45098877 0.9333496 -0.787735 1.92099 -1.002533 2.9401855m-22.582642 0.8042145l0 0c1.3167267 0.79582214 2.5348816 1.7536621 3.6277008 2.8524933m-31.828873 16.542282l0 0c0.13398743 1.016037 0.3456726 2.0195465 0.6331024 3.0011444" fill-rule="nonzero"></path><path fill="#000000" d="m176.47556 176.89813l1.796875 0l0 7.84375q0 2.0625 -0.46875 3.265625q-0.453125 1.203125 -1.671875 1.96875q-1.203125 0.75 -3.171875 0.75q-1.90625 0 -3.125 -0.65625q-1.21875 -0.65625 -1.734375 -1.90625q-0.515625 -1.25 -0.515625 -3.421875l0 -7.84375l1.796875 0l0 7.84375q0 1.765625 0.328125 2.609375q0.328125 0.84375 1.125 1.296875q0.8125 0.453125 1.96875 0.453125q1.984375 0 2.828125 -0.890625q0.84375 -0.90625 0.84375 -3.46875l0 -7.84375zm4.551071 13.59375l0 -13.59375l4.6875 0q1.578125 0 2.421875 0.1875q1.15625 0.265625 1.984375 0.96875q1.078125 0.921875 1.609375 2.34375q0.53125 1.40625 0.53125 3.21875q0 1.546875 -0.359375 2.75q-0.359375 1.1875 -0.921875 1.984375q-0.5625 0.78125 -1.234375 1.234375q-0.671875 0.4375 -1.625 0.671875q-0.953125 0.234375 -2.1875 0.234375l-4.90625 0zm1.796875 -1.609375l2.90625 0q1.34375 0 2.109375 -0.25q0.765625 -0.25 1.21875 -0.703125q0.640625 -0.640625 1.0 -1.71875q0.359375 -1.078125 0.359375 -2.625q0 -2.125 -0.703125 -3.265625q-0.703125 -1.15625 -1.703125 -1.546875q-0.71875 -0.28125 -2.328125 -0.28125l-2.859375 0l0 10.390625zm11.676071 1.609375l0 -13.59375l5.125 0q1.359375 0 2.078125 0.125q1.0 0.171875 1.671875 0.640625q0.671875 0.46875 1.078125 1.3125q0.421875 0.84375 0.421875 1.84375q0 1.734375 -1.109375 2.9375q-1.09375 1.203125 -3.984375 1.203125l-3.484375 0l0 5.53125l-1.796875 0zm1.796875 -7.140625l3.515625 0q1.75 0 2.46875 -0.640625q0.734375 -0.65625 0.734375 -1.828125q0 -0.859375 -0.4375 -1.46875q-0.421875 -0.609375 -1.125 -0.796875q-0.453125 -0.125 -1.671875 -0.125l-3.484375 0l0 4.859375z" fill-rule="nonzero"></path></g></svg>

